<svg xmlns="http://www.w3.org/2000/svg" viewBox="0 0 24.59 18.74"><defs><style>.cls-1{fill:#fff;}</style></defs><g id="Layer_2" data-name="Layer 2"><g id="Layer_1-2" data-name="Layer 1"><path class="cls-1" d="M20.81,1.55a19.92,19.92,0,0,0-5-1.55.09.09,0,0,0-.08,0,11.56,11.56,0,0,0-.62,1.28,19,19,0,0,0-5.63,0A10.84,10.84,0,0,0,8.85,0s0,0-.08,0a20.18,20.18,0,0,0-5,1.55l0,0a20.79,20.79,0,0,0-3.63,14,.09.09,0,0,0,0,.05,20.33,20.33,0,0,0,6.14,3.11.08.08,0,0,0,.09,0,16.46,16.46,0,0,0,1.26-2,.08.08,0,0,0,0-.11,13.54,13.54,0,0,1-1.92-.92.08.08,0,0,1,0-.13c.13-.09.25-.19.38-.3a.11.11,0,0,1,.08,0,14.51,14.51,0,0,0,12.35,0,.11.11,0,0,1,.08,0l.39.3a.08.08,0,0,1,0,.13,13,13,0,0,1-1.92.92.08.08,0,0,0,0,.11,17.67,17.67,0,0,0,1.25,2,.08.08,0,0,0,.09,0,20.15,20.15,0,0,0,6.15-3.11.05.05,0,0,0,0-.05,20.68,20.68,0,0,0-3.63-14ZM8.22,12.78A2.35,2.35,0,0,1,6,10.31,2.35,2.35,0,0,1,8.22,7.83a2.34,2.34,0,0,1,2.21,2.48A2.35,2.35,0,0,1,8.22,12.78Zm8.17,0a2.35,2.35,0,0,1-2.21-2.47,2.35,2.35,0,0,1,2.21-2.48,2.34,2.34,0,0,1,2.21,2.48A2.34,2.34,0,0,1,16.39,12.78Z"/></g></g></svg>